<?xml version="1.0" encoding="UTF-8"?>
<svg viewBox="0 0 130 60" xmlns="http://www.w3.org/2000/svg">
<g fill="#343434">
<path d="m126.26 3.7516v34.499c0 6.585-5.4584 11.963-12.183 11.963h-37.101c-4.4564 0-8.6755 1.6003-11.972 4.5649-3.2961-2.9383-7.5152-4.5649-11.972-4.5649h-37.181c-6.6714 0-12.077-5.352-12.077-11.963v-34.499h122.48zm-59.278 54.307c2.6633-2.6498 6.2231-4.1189 10.02-4.1189h37.075c8.7809 0 15.927-7.031 15.927-15.689v-38.251h-130v38.225c0 8.6576 7.0933 15.689 15.848 15.689h37.181c3.7708 0 7.3306 1.4692 10.02 4.1189l1.9777 1.9676 1.9513-1.9414z"/>
<path d="m112.54 19.459c0 1.1363-0.92701 1.9627-2.0924 1.9627-1.1654 0-2.0924-0.82639-2.0924-1.9627s0.92701-1.9627 2.0924-1.9627c1.1654-0.051649 2.0924 0.77474 2.0924 1.9627zm-3.9199 16.037h3.6286v-12.577h-3.6286v12.577zm-6.5155-7.5924 4.741 7.5924h-3.9464l-3.1783-5.0358-1.7216 2.1176v2.9182h-3.6021v-18.077h3.6021v8.3413c0 1.5495-0.1854 3.0989-0.1854 3.0989h0.079458s0.84755-1.3687 1.5627-2.35l2.7545-3.5896h4.2377l-4.3437 4.9841zm-11.362-0.46484c0-3.1248-1.5627-4.8292-4.0523-4.8292-2.1189 0-3.2313 1.2138-3.8669 2.3759h-0.079458l0.1854-2.066h-3.6021v12.577h3.6021v-7.4633c0-1.4462 0.87404-2.4533 2.2248-2.4533 1.3508 0 1.9335 0.87804 1.9335 2.5566v7.36h3.6286l0.026486-8.0573zm-14.885-7.9798c0 1.1363-0.92701 1.9627-2.0924 1.9627-1.1654 0-2.0924-0.82639-2.0924-1.9627s0.92701-1.9627 2.0924-1.9627c1.1919-0.051649 2.0924 0.77474 2.0924 1.9627zm-3.9199 16.037h3.6286v-12.577h-3.6286v12.577zm-6.2507-3.5121c0-1.0072-1.4302-1.2138-3.0989-1.6786-1.9335-0.49067-4.3702-1.4462-4.3702-3.8479 0-2.3759 2.3308-3.8737 5.0853-3.8737 2.5691 0 4.9264 1.1879 5.9064 2.8665l-3.0989 1.7044c-0.31783-1.1105-1.2713-1.9885-2.7016-1.9885-0.92701 0-1.6951 0.38737-1.6951 1.1363 0 0.95551 1.6951 1.0588 3.6021 1.6528 2.0129 0.61979 3.8669 1.5236 3.8669 3.822 0 2.5308-2.4102 4.0286-5.1912 4.0286-3.0194 0-5.4031-1.2396-6.4626-3.2539l3.1518-1.7302c0.39729 1.3687 1.5362 2.4017 3.2578 2.4017 1.033 0 1.7481-0.41319 1.7481-1.2396zm-11.468-14.462h-3.6286v14.488c0 1.2912 0.29135 2.2467 0.84755 2.8407 0.58269 0.59397 1.4832 0.87804 2.728 0.87804 0.42377 0 0.87404-0.051649 1.2978-0.12912 0.45026-0.1033 0.79458-0.23242 1.0859-0.38737l0.31783-2.3759c-0.29135 0.1033-0.52972 0.18077-0.76809 0.2066-0.21189 0.051649-0.47675 0.051649-0.76809 0.051649-0.47675 0-0.68863-0.12912-0.84755-0.36154-0.1854-0.23242-0.26486-0.64561-0.26486-1.2396v-13.971zm-12.078 7.6182c-1.3243 0-2.4102 0.92968-2.7016 2.6341h5.0853c0.026486-1.4978-0.97998-2.6341-2.3837-2.6341zm5.5885 5.01h-8.3431c0.15892 2.0401 1.3243 3.0473 2.834 3.0473 1.3508 0 2.2778-0.87804 2.4897-2.066l3.0459 1.6786c-0.90052 1.6011-2.834 2.9957-5.5356 2.9957-3.6021 0-6.2507-2.4533-6.2507-6.5853 0-4.1061 2.7016-6.5853 6.1712-6.5853s5.7739 2.4017 5.7739 5.8105c-0.026486 1.0072-0.1854 1.7044-0.1854 1.7044zm-18.461 5.3457h3.761v-17.302h-3.761v6.8435h-7.0717v-6.8177h-3.761v17.277h3.761v-7.1534h7.0717v7.1534z"/>
</g>
</svg>
