<svg version="1.1" xmlns="http://www.w3.org/2000/svg" xmlns:xlink="http://www.w3.org/1999/xlink">
<defs>
  <rect id="path-1" x="0" y="0" width="100%" height="100%"></rect>
</defs>
<g id="Symbols" stroke="none" stroke-width="1" fill-rule="evenodd">
<g id="Koro/02-XS">
  <path 
    d="M1463,0 L1462.79145,32.0012964 C1449.80088,32.0012964 1443.17569,35.6024851 1436.67297,39.2756976 L1435.47854,39.9503693 C1429.10029,43.5442987 1422.47278,47 1409.72757,47 C1397.00047,47 1390.38238,43.5442987 1384.00561,39.9503693 L1382.41305,39.0509271 C1376.03576,35.4569977 1369.41082,32.0012964 1356.67054,32.0012964 C1343.67662,32.0012964 1337.04971,35.6024851 1330.54692,39.2756976 L1329.35249,39.9503693 C1322.97438,43.5442987 1316.34858,47 1303.60666,47 C1290.87956,47 1284.26147,43.5442987 1277.88433,39.9503693 L1276.69,39.2756976 C1270.18735,35.6024851 1263.55358,32.0012964 1250.54621,32.0012964 C1237.82076,32.0012964 1231.20352,35.4569977 1224.82986,39.0509271 L1224.03399,39.5006482 C1217.40529,43.2503241 1210.77574,47 1197.51663,47 C1184.50925,47 1177.87549,43.3988113 1171.37284,39.7255987 L1170.17851,39.0509271 C1163.80137,35.4569977 1157.18328,32.0012964 1144.45618,32.0012964 C1132.24517,32.0012964 1125.65123,35.1750221 1119.50999,38.6026458 L1118.7111,39.0509271 C1118.57824,39.1258006 1118.44549,39.2007341 1118.31279,39.2756976 L1117.11854,39.9503693 C1110.74184,43.5442987 1104.12461,47 1091.39915,47 C1079.71755,47 1073.17586,44.096251 1067.25387,40.8440521 L1066.44975,40.3986506 C1066.1827,40.2496234 1065.91651,40.1001164 1065.65075,39.9503693 L1064.45632,39.2756976 C1057.95357,35.6024851 1051.32752,32.0012964 1038.33527,32.0012964 C1025.595,32.0012964 1018.97006,35.4569977 1012.59239,39.0509271 L1011.39804,39.7255987 C1004.89565,43.3988113 998.268748,47 985.27482,47 C972.531256,47 965.904603,43.5442987 959.526419,39.9503693 L958.730016,39.5006482 C952.097031,35.7509723 945.468333,32.0012964 932.210938,32.0012964 C919.46902,32.0012964 912.843223,35.4569977 906.465864,39.0509271 L904.873305,39.9503693 C898.496604,43.5442987 891.879369,47 879.153916,47 C866.410352,47 859.783698,43.5442987 853.405515,39.9503693 L852.211085,39.2756976 C845.708327,35.6024851 839.082281,32.0012964 826.090033,32.0012964 C813.377752,32.0012964 806.767366,35.4569977 800.394227,39.0509271 L798.802491,39.9503693 C792.428167,43.5442987 785.80237,47 773.060452,47 C761.393944,47 754.8607,44.096251 748.940817,40.8440521 L748.136938,40.3986506 L748.136938,40.3986506 L747.338115,39.9503693 C747.205258,39.8754958 747.072506,39.8005623 746.939805,39.7255987 L745.745453,39.0509271 C739.434318,35.4945295 732.880278,32.0734879 720.397201,32.0024232 L720.791168,32.0012964 C708.048588,32.0012964 701.422446,35.4569977 695.036404,39.0509271 L694.238974,39.5006482 C693.973298,39.6506352 693.707613,39.8006223 693.441495,39.9503693 L692.641416,40.3986506 C686.49099,43.8262743 679.886467,47 667.655868,47 C654.911639,47 648.28464,43.5442987 641.899291,39.9503693 L641.101956,39.5006482 C634.460902,35.7509723 627.816414,32.0012964 614.527436,32.0012964 C602.312637,32.0012964 595.716645,35.1750221 589.567484,38.6026458 L588.767528,39.0509271 C588.501438,39.2006741 588.235767,39.3506611 587.97009,39.5006482 L587.172619,39.9503693 C580.785917,43.5442987 574.151202,47 561.392136,47 C548.647907,47 542.020908,43.5442987 535.635179,39.9503693 L534.837795,39.5006482 C534.572135,39.3506611 534.30647,39.2006741 534.040373,39.0509271 L533.240364,38.6026458 C527.090526,35.1750221 520.487709,32.0012964 508.26027,32.0012964 C495.252219,32.0012964 488.618113,35.6024851 482.110678,39.2756976 L481.314058,39.7255987 C474.806555,43.3988113 468.170733,47 455.159316,47 C442.400249,47 435.765535,43.5442987 429.379213,39.9503693 L428.581791,39.5006482 C428.316132,39.3506611 428.050478,39.2006741 427.784406,39.0509271 L426.984509,38.6026458 C420.835808,35.1750221 414.240669,32.0012964 402.02745,32.0012964 C389.800011,32.0012964 383.197194,35.1750221 377.04769,38.6026458 L376.247726,39.0509271 C375.715565,39.3504212 375.18513,39.6508752 374.653023,39.9503693 L373.853184,40.3986506 C367.704943,43.8262743 361.110658,47 348.899019,47 C335.872455,47 329.228908,43.3988113 322.717061,39.7255987 L321.919926,39.2756976 C321.787038,39.2007341 321.654098,39.1258006 321.521054,39.0509271 L320.721111,38.6026458 C314.572076,35.1750221 307.976937,32.0012964 295.763718,32.0012964 C283.0063,32.0012964 276.372443,35.4569977 269.986186,39.0509271 L269.188769,39.5006482 C268.92311,39.6506352 268.657455,39.8006223 268.39138,39.9503693 L267.59147,40.3986506 C261.442643,43.8262743 254.846651,47 242.631852,47 C230.402833,47 223.799163,43.8262743 217.648864,40.3986506 L216.848797,39.9503693 C216.582681,39.8006223 216.316998,39.6506352 216.051322,39.5006482 L215.253888,39.0509271 C208.867779,35.4569977 202.24078,32.0012964 189.496551,32.0012964 C177.269112,32.0012964 170.666295,35.1750221 164.516791,38.6026458 L163.716828,39.0509271 C163.184666,39.3504212 162.654232,39.6508752 162.122125,39.9503693 L161.322285,40.3986506 C155.174045,43.8262743 148.579759,47 136.36812,47 C123.607405,47 116.971833,43.5442987 110.585065,39.9503693 L109.78759,39.5006482 C109.521913,39.3506611 109.256243,39.2006741 108.990156,39.0509271 L108.190212,38.6026458 C102.041177,35.1750221 95.4460387,32.0012964 83.2328194,32.0012964 C70.238233,32.0012964 63.6109939,35.6024851 57.1038281,39.2756976 L56.3072076,39.7255987 C49.7994359,43.3988113 43.1567468,47 30.131866,47 C17.9186467,47 11.3235083,43.8262743 5.17480745,40.3986506 L4.37490972,39.9503693 C4.24187371,39.8754958 4.10894242,39.8005623 3.97606271,39.7255987 L3.17897846,39.2756976 C3.04609257,39.2007341 2.913152,39.1258006 2.78010363,39.0509271 L1.98009461,38.6026458 C-4.16974382,35.1750221 -10.7725609,32.0012964 -23,32.0012964 L-22.8468754,0 L1463,0 Z" 
    fill="#0000bf">
  </path>
  </g>
  </g>
  </svg>